<svg width="0" height="0" style="position:absolute"><symbol enable-background="new 0 0 128 128" id="arrow-down" viewBox="0 0 128 128" xml:space="preserve"><g><g><path d="M64.032,13.869c-27.642,0-50.129,22.489-50.129,50.131c0.002,27.643,22.49,50.131,50.131,50.131    c27.64,0,50.126-22.488,50.126-50.131C114.16,36.358,91.673,13.869,64.032,13.869z M64.034,110.131    C38.6,110.131,17.905,89.438,17.903,64c0-25.437,20.693-46.131,46.129-46.131c25.435,0,46.128,20.694,46.128,46.131    C110.16,89.438,89.468,110.131,64.034,110.131z M78.539,68.918L66.034,79.694V43.942c0-1.104-0.896-2-2-2s-2,0.896-2,2v35.752    L49.527,68.918c-0.837-0.721-2.101-0.627-2.821,0.21s-0.627,2.101,0.21,2.821l17.118,14.748L81.15,71.949    c0.837-0.722,0.931-1.984,0.209-2.821C80.639,68.291,79.376,68.197,78.539,68.918z"/></g></g></symbol><symbol enable-background="new 0 0 128 128" id="circle-check" viewBox="0 0 128 128" xml:space="preserve"><g><g><path d="M85.263,46.49L54.485,77.267L42.804,65.584c-0.781-0.782-2.047-0.782-2.828-0.002c-0.781,0.782-0.781,2.048,0,2.829    l14.51,14.513l33.605-33.607c0.781-0.779,0.781-2.046,0-2.827C87.31,45.708,86.044,45.708,85.263,46.49z M64.032,13.871    c-27.642,0-50.129,22.488-50.129,50.126c0.002,27.642,22.49,50.131,50.131,50.131h0.004c27.638,0,50.123-22.489,50.123-50.131    C114.161,36.358,91.674,13.871,64.032,13.871z M64.038,110.128h-0.004c-25.435,0-46.129-20.694-46.131-46.131    c0-25.434,20.693-46.126,46.129-46.126s46.129,20.693,46.129,46.126C110.161,89.434,89.471,110.128,64.038,110.128z"/></g></g></symbol><symbol enable-background="new 0 0 128 128" id="circle-dollar" viewBox="0 0 128 128" xml:space="preserve"><path d="M64.005,114.135h-0.004c-27.641,0-50.129-22.487-50.131-50.128c0-27.642,22.487-50.129,50.129-50.129  s50.129,22.488,50.129,50.129C114.128,91.647,91.643,114.135,64.005,114.135z M63.999,17.877c-25.436,0-46.129,20.693-46.129,46.129  c0.002,25.436,20.696,46.129,46.131,46.129h0.004c25.433,0,46.123-20.693,46.123-46.129S89.435,17.877,63.999,17.877z"/><g><path d="M64.478,92.582c-8.949,0-16.23-6.85-16.23-15.268c0-1.104,0.896-2,2-2s2,0.896,2,2c0,6.213,5.486,11.268,12.23,11.268   c6.743,0,12.229-5.055,12.229-11.268s-5.485-11.268-12.229-11.268c-8.949,0-16.23-6.849-16.23-15.268   c0-8.418,7.281-15.267,16.23-15.267c4.811,0,9.342,1.988,12.434,5.455c0.735,0.825,0.663,2.089-0.161,2.824   s-2.09,0.662-2.823-0.161c-2.334-2.617-5.778-4.118-9.449-4.118c-6.744,0-12.23,5.054-12.23,11.267   c0,6.213,5.486,11.268,12.23,11.268c8.948,0,16.229,6.85,16.229,15.268S73.426,92.582,64.478,92.582z"/><path d="M64.032,99.842c-1.104,0-2-0.896-2-2v-67.59c0-1.104,0.896-2,2-2s2,0.896,2,2v67.59   C66.032,98.946,65.137,99.842,64.032,99.842z"/></g></symbol><symbol enable-background="new 0 0 128 128" id="refresh" viewBox="0 0 128 128" xml:space="preserve"><g><g><path d="M72.511,90.536c-0.386,1.035,0.14,2.187,1.175,2.573l16.745,6.248c-7.854,5.62-17.1,8.594-26.804,8.594    c-25.435,0-46.127-20.693-46.127-46.128c0-1.104-0.896-2-2-2s-2,0.896-2,2c0,27.64,22.487,50.128,50.127,50.128    c9.725,0,19.026-2.75,27.111-7.966l-3.087,14.551c-0.229,1.08,0.461,2.142,1.541,2.371c0.14,0.03,0.279,0.044,0.417,0.044    c0.925,0,1.755-0.645,1.954-1.586l4.69-22.105l-21.17-7.898C74.051,88.977,72.898,89.501,72.511,90.536z M64.375,16.322    c-9.728,0-19.03,2.749-27.11,7.963l3.086-14.548c0.229-1.081-0.46-2.142-1.541-2.371c-1.077-0.229-2.143,0.461-2.371,1.542    l-4.69,22.104l21.17,7.898c0.23,0.086,0.467,0.127,0.699,0.127c0.811,0,1.573-0.498,1.874-1.302    c0.386-1.034-0.14-2.187-1.175-2.573l-16.747-6.25c7.85-5.618,17.097-8.591,26.806-8.591c25.434,0,46.125,20.691,46.125,46.125    c0,1.104,0.896,2,2,2s2-0.896,2-2C114.5,38.808,92.014,16.322,64.375,16.322z"/></g></g></symbol><symbol enable-background="new 0 0 128 128" id="share-2" viewBox="0 0 128 128" xml:space="preserve"><path d="M29.364,44.712c-8.464,0-15.351-6.887-15.351-15.352c0-8.463,6.887-15.349,15.351-15.349  c8.465,0,15.352,6.886,15.352,15.349C44.716,37.825,37.829,44.712,29.364,44.712z M29.364,18.011  c-6.259,0-11.351,5.091-11.351,11.349c0,6.26,5.092,11.352,11.351,11.352S40.716,35.62,40.716,29.36  C40.716,23.102,35.623,18.011,29.364,18.011z"/><path d="M98.814,44.712c-8.464,0-15.35-6.887-15.35-15.352c0-8.464,6.886-15.352,15.35-15.352c8.466,0,15.353,6.887,15.353,15.352  C114.167,37.825,107.28,44.712,98.814,44.712z M98.814,18.008c-6.258,0-11.35,5.093-11.35,11.352c0,6.26,5.092,11.352,11.35,11.352  c6.26,0,11.353-5.092,11.353-11.352C110.167,23.101,105.074,18.008,98.814,18.008z"/><path d="M64.025,114.008c-8.466,0-15.353-6.887-15.353-15.351s6.887-15.35,15.353-15.35c8.463,0,15.349,6.886,15.349,15.35  S72.488,114.008,64.025,114.008z M64.025,87.308c-6.26,0-11.353,5.092-11.353,11.35c0,6.259,5.093,11.351,11.353,11.351  c6.258,0,11.349-5.092,11.349-11.351C75.374,92.399,70.283,87.308,64.025,87.308z"/><rect height="4" transform="matrix(0.4922 0.8705 -0.8705 0.4922 79.886 -8.7004)" width="51.711" x="21.545" y="62.118"/><rect height="51.711" transform="matrix(0.8706 0.492 -0.492 0.8706 41.9784 -31.3848)" width="4" x="78.659" y="38.262"/></symbol><symbol enable-background="new 0 0 128 128" id="star" viewBox="0 0 128 128" xml:space="preserve"><path d="M91.046,111.818c-1.19,0-2.347-0.361-3.341-1.049C87.188,110.402,68.92,97.098,64,93.515L40.336,110.74  c-1.039,0.717-2.194,1.078-3.382,1.078c-3.228,0-5.854-2.636-5.854-5.877c0-0.639,0.114-1.305,0.339-1.98l0.038-0.105  c0.253-0.71,6.214-18.996,9.008-27.575c-7.342-5.364-23.014-16.808-23.653-17.25c-1.589-1.114-2.524-2.915-2.524-4.834  c0-3.305,2.608-5.994,5.815-5.994h29.346l8.933-27.59c0.687-2.446,2.998-4.207,5.599-4.207c2.604,0,4.915,1.762,5.622,4.283  l8.947,27.514h29.35c3.185,0,5.775,2.679,5.775,5.974c0,1.932-0.936,3.74-2.502,4.838c-0.671,0.463-16.339,11.903-23.678,17.265  c2.797,8.586,8.764,26.887,9.025,27.621c0.246,0.727,0.361,1.396,0.361,2.041C96.901,109.183,94.274,111.818,91.046,111.818z   M64,88.566l1.178,0.856c8.396,6.116,24.391,17.764,24.824,18.072c0.299,0.206,0.669,0.323,1.044,0.323  c1.023,0,1.855-0.842,1.855-1.877c0-0.209-0.045-0.447-0.133-0.709c-0.148-0.371-6.698-20.473-9.506-29.094l-0.449-1.378  l1.171-0.854c2.486-1.818,24.313-17.764,24.944-18.188c0.468-0.329,0.766-0.913,0.766-1.541c0-1.069-0.813-1.974-1.775-1.974H75.663  l-9.869-30.355c-0.252-0.894-0.964-1.441-1.794-1.441c-0.829,0-1.541,0.549-1.771,1.366l-9.85,30.431H20.123  c-0.984,0-1.815,0.914-1.815,1.994c0,0.617,0.298,1.193,0.797,1.543c0.6,0.403,22.425,16.349,24.911,18.167l1.171,0.854  l-0.449,1.379c-2.716,8.344-8.937,27.436-9.504,29.086h0.001c-0.089,0.267-0.134,0.508-0.134,0.717c0,1.035,0.831,1.877,1.854,1.877  c0.38,0,0.74-0.114,1.071-0.342L64,88.566z"/></symbol><symbol enable-background="new 0 0 128 128" id="sun" viewBox="0 0 128 128" xml:space="preserve"><g><path d="M64.079,95.543c-17.39,0-31.537-14.148-31.537-31.538c0-17.389,14.147-31.535,31.537-31.535s31.537,14.146,31.537,31.535   C95.616,81.395,81.469,95.543,64.079,95.543z M64.079,36.47c-15.184,0-27.537,12.353-27.537,27.535   c0,15.184,12.354,27.538,27.537,27.538s27.537-12.354,27.537-27.538C91.616,48.823,79.263,36.47,64.079,36.47z"/></g><g><g><path d="M64.079,114.086c-1.104,0-2-0.896-2-2V101.41c0-1.105,0.896-2,2-2s2,0.895,2,2v10.676    C66.079,113.189,65.184,114.086,64.079,114.086z"/><path d="M64.079,28.603c-1.104,0-2-0.896-2-2V15.926c0-1.104,0.896-2,2-2s2,0.896,2,2v10.677    C66.079,27.708,65.184,28.603,64.079,28.603z"/></g><g><path d="M112.159,66.006h-10.676c-1.104,0-2-0.896-2-2c0-1.104,0.896-2,2-2h10.676c1.104,0,2,0.896,2,2    C114.159,65.109,113.264,66.006,112.159,66.006z"/><path d="M26.676,66.006H16c-1.104,0-2-0.896-2-2c0-1.104,0.896-2,2-2h10.676c1.104,0,2,0.896,2,2    C28.676,65.109,27.78,66.006,26.676,66.006z"/></g></g><g><g><path d="M98.075,100.004c-0.512,0-1.023-0.195-1.414-0.586l-7.548-7.549c-0.781-0.781-0.781-2.047,0-2.828s2.047-0.781,2.828,0    l7.548,7.549c0.781,0.781,0.781,2.047,0,2.828C99.099,99.809,98.587,100.004,98.075,100.004z"/><path d="M37.63,39.558c-0.512,0-1.023-0.195-1.414-0.586l-7.548-7.549c-0.781-0.781-0.781-2.048,0-2.828    c0.781-0.781,2.047-0.781,2.828,0l7.548,7.549c0.781,0.781,0.781,2.048,0,2.828C38.653,39.363,38.142,39.558,37.63,39.558z"/></g><g><path d="M90.527,39.558c-0.512,0-1.023-0.195-1.414-0.586c-0.781-0.781-0.781-2.048,0-2.828l7.55-7.549    c0.781-0.781,2.047-0.781,2.828,0s0.781,2.048,0,2.828l-7.55,7.549C91.551,39.363,91.039,39.558,90.527,39.558z"/><path d="M30.082,100.004c-0.512,0-1.023-0.195-1.414-0.586c-0.781-0.781-0.781-2.049,0-2.828l7.549-7.549    c0.781-0.781,2.047-0.781,2.828,0s0.781,2.049,0,2.828l-7.549,7.549C31.105,99.809,30.594,100.004,30.082,100.004z"/></g></g></symbol><symbol enable-background="new 0 0 128 128" id="wi-fi" viewBox="0 0 128 128" xml:space="preserve"><path d="M84.521,81.436c-0.577,0-1.149-0.248-1.545-0.729c-4.751-5.769-11.759-9.077-19.227-9.077  c-7.226,0-14.085,3.134-18.82,8.601c-0.723,0.834-1.986,0.926-2.821,0.201c-0.835-0.724-0.925-1.986-0.202-2.822  c5.496-6.342,13.458-9.979,21.844-9.979c8.668,0,16.801,3.839,22.314,10.534c0.702,0.854,0.58,2.113-0.272,2.815  C85.419,81.287,84.968,81.436,84.521,81.436z"/><path d="M98.78,64.712c-0.549,0-1.096-0.225-1.491-0.666c-8.532-9.529-20.758-14.994-33.541-14.994  c-12.533,0-24.598,5.29-33.1,14.512c-0.749,0.811-2.013,0.864-2.826,0.114c-0.813-0.749-0.863-2.014-0.115-2.826  c9.258-10.042,22.394-15.801,36.041-15.801c13.919,0,27.23,5.951,36.521,16.325c0.736,0.823,0.667,2.087-0.156,2.824  C99.731,64.543,99.255,64.712,98.78,64.712z"/><path d="M112.047,48.984c-0.538,0-1.074-0.216-1.469-0.643C98.543,35.317,81.473,27.847,63.746,27.847  c-17.73,0-34.199,7.106-46.371,20.009c-0.759,0.805-2.025,0.84-2.827,0.083c-0.804-0.759-0.841-2.024-0.083-2.827  C27.4,31.399,44.902,23.847,63.746,23.847c18.839,0,36.979,7.938,49.77,21.78c0.75,0.812,0.7,2.077-0.111,2.827  C113.02,48.808,112.533,48.984,112.047,48.984z"/><path d="M63.969,103.207c-4.607,0-8.355-3.75-8.355-8.359c0-4.605,3.748-8.353,8.355-8.353s8.355,3.747,8.355,8.353  C72.324,99.457,68.576,103.207,63.969,103.207z M63.969,90.495c-2.401,0-4.355,1.953-4.355,4.353c0,2.404,1.954,4.359,4.355,4.359  s4.355-1.955,4.355-4.359C68.324,92.448,66.37,90.495,63.969,90.495z"/></symbol></svg>