<svg width="0" height="0" style="position:absolute"><symbol id="arrow-down" viewBox="0 0 128 128"><g><g><path d="M64.032 13.87c-27.642 0-50.13 22.488-50.13 50.13.003 27.643 22.49 50.13 50.132 50.13 27.64 0 50.126-22.487 50.126-50.13 0-27.642-22.487-50.13-50.128-50.13zm.002 96.26c-25.434 0-46.13-20.692-46.13-46.13 0-25.437 20.692-46.13 46.128-46.13 25.435 0 46.128 20.693 46.128 46.13 0 25.438-20.692 46.13-46.126 46.13zM78.54 68.92L66.033 79.694V43.942a2 2 0 0 0-4 0v35.752L49.527 68.918a2 2 0 1 0-2.61 3.03L64.033 86.7 81.15 71.95a2 2 0 1 0-2.61-3.03z"/></g></g></symbol><symbol id="circle-check" viewBox="0 0 128 128"><g><g><path d="M85.263 46.49L54.485 77.267l-11.68-11.683a2 2 0 0 0-2.83 2.827l14.51 14.52L88.09 49.32a1.998 1.998 0 1 0-2.826-2.827zm-21.23-32.62c-27.643 0-50.13 22.49-50.13 50.127.002 27.642 22.49 50.13 50.13 50.13h.005c27.638 0 50.123-22.488 50.123-50.13 0-27.64-22.48-50.126-50.122-50.126zm.005 96.258h-.004c-25.435 0-46.13-20.694-46.13-46.13 0-25.435 20.692-46.127 46.128-46.127s46.13 20.7 46.13 46.13c0 25.44-20.69 46.13-46.124 46.13z"/></g></g></symbol><symbol id="circle-dollar" viewBox="0 0 128 128"><path d="M64.005 114.135H64c-27.64 0-50.128-22.487-50.13-50.128 0-27.642 22.487-50.13 50.13-50.13s50.128 22.49 50.128 50.13c0 27.64-22.485 50.128-50.123 50.128zM64 17.877c-25.437 0-46.13 20.693-46.13 46.13.002 25.435 20.696 46.128 46.13 46.128h.005c25.433 0 46.123-20.693 46.123-46.13s-20.693-46.128-46.13-46.128z"/><g><path d="M64.478 92.582c-8.95 0-16.23-6.85-16.23-15.268a2 2 0 0 1 4 0c0 6.213 5.486 11.268 12.23 11.268 6.743 0 12.23-5.055 12.23-11.268s-5.486-11.268-12.23-11.268c-8.95 0-16.23-6.85-16.23-15.268 0-8.418 7.28-15.267 16.23-15.267 4.81 0 9.342 1.99 12.434 5.46a2 2 0 1 1-2.984 2.665c-2.334-2.617-5.778-4.12-9.45-4.12-6.743 0-12.23 5.056-12.23 11.27 0 6.212 5.487 11.267 12.23 11.267 8.95 0 16.23 6.85 16.23 15.268s-7.282 15.268-16.23 15.268z"/><path d="M64.032 99.842a2 2 0 0 1-2-2v-67.59a2 2 0 0 1 4 0v67.59a2 2 0 0 1-2 2z"/></g></symbol><symbol id="refresh" viewBox="0 0 128 128"><g><g><path d="M72.51 90.536a2 2 0 0 0 1.176 2.573l16.744 6.24c-7.85 5.62-17.1 8.594-26.8 8.594-25.433 0-46.125-20.693-46.125-46.128a2 2 0 0 0-4 0c0 27.64 22.488 50.127 50.128 50.127 9.726 0 19.027-2.75 27.11-7.964l-3.085 14.55a2 2 0 1 0 3.913.83l4.69-22.105-21.17-7.897a2 2 0 0 0-2.57 1.174zm-8.135-74.214c-9.728 0-19.03 2.75-27.11 7.963L40.35 9.737a2 2 0 1 0-3.91-.83l-4.69 22.105 21.17 7.898a1.996 1.996 0 0 0 2.572-1.175 2 2 0 0 0-1.175-2.573l-16.747-6.25c7.85-5.618 17.097-8.59 26.806-8.59 25.434 0 46.125 20.69 46.125 46.124a2 2 0 0 0 4 0c0-27.638-22.48-50.124-50.12-50.124z"/></g></g></symbol><symbol id="share-2" viewBox="0 0 128 128"><path d="M29.364 44.712c-8.464 0-15.35-6.887-15.35-15.352 0-8.463 6.886-15.35 15.35-15.35 8.465 0 15.352 6.887 15.352 15.35 0 8.465-6.887 15.352-15.352 15.352zm0-26.7c-6.26 0-11.35 5.09-11.35 11.348 0 6.26 5.09 11.352 11.35 11.352S40.716 35.62 40.716 29.36c0-6.258-5.093-11.35-11.352-11.35zm69.45 26.7c-8.464 0-15.35-6.887-15.35-15.352 0-8.464 6.886-15.352 15.35-15.352 8.466 0 15.353 6.887 15.353 15.352s-6.887 15.352-15.353 15.352zm0-26.704c-6.258 0-11.35 5.093-11.35 11.352 0 6.26 5.092 11.352 11.35 11.352 6.26 0 11.353-5.092 11.353-11.352 0-6.26-5.093-11.352-11.353-11.352zm-34.79 96c-8.465 0-15.352-6.887-15.352-15.35s6.887-15.35 15.353-15.35c8.463 0 15.35 6.885 15.35 15.35s-6.887 15.35-15.35 15.35zm0-26.7c-6.26 0-11.352 5.092-11.352 11.35 0 6.26 5.093 11.35 11.353 11.35 6.258 0 11.35-5.09 11.35-11.35s-5.092-11.35-11.35-11.35z"/><path d="M36.417 40.63L61.87 85.642l-3.483 1.97-25.452-45.015zm55.217-.004l3.482 1.968-25.44 45.02-3.484-1.968z"/></symbol><symbol id="star" viewBox="0 0 128 128"><path d="M91.046 111.818a5.85 5.85 0 0 1-3.34-1.05C87.186 110.403 68.92 97.1 64 93.516L40.336 110.74c-1.04.717-2.194 1.078-3.382 1.078-3.228 0-5.854-2.636-5.854-5.877 0-.632.114-1.3.34-1.98l.037-.1c.253-.71 6.214-18.994 9.008-27.573-7.342-5.363-23.014-16.807-23.653-17.25a5.9 5.9 0 0 1-2.524-4.833c0-3.305 2.608-5.994 5.815-5.994H49.47l8.932-27.59c.687-2.447 2.998-4.208 5.6-4.208 2.603 0 4.914 1.76 5.62 4.283L78.57 48.21h29.35c3.185 0 5.775 2.68 5.775 5.974a5.91 5.91 0 0 1-2.502 4.838c-.67.463-16.34 11.903-23.678 17.265 2.797 8.587 8.764 26.888 9.025 27.62.246.73.36 1.398.36 2.043 0 3.24-2.626 5.876-5.854 5.876zM64 88.566l1.178.856c8.396 6.116 24.39 17.764 24.824 18.072.3.206.67.323 1.044.323a1.868 1.868 0 0 0 1.855-1.877c0-.21-.04-.447-.13-.71-.15-.37-6.7-20.472-9.502-29.093l-.45-1.378 1.172-.86c2.485-1.82 24.312-17.765 24.943-18.19.468-.33.766-.912.766-1.54 0-1.07-.815-1.974-1.777-1.974h-32.26l-9.87-30.355c-.25-.893-.963-1.44-1.793-1.44s-1.54.55-1.77 1.366L52.38 52.2H20.12c-.984 0-1.815.916-1.815 1.996 0 .617.298 1.193.797 1.543.6.4 22.425 16.35 24.91 18.16l1.172.855-.45 1.38c-2.715 8.343-8.936 27.435-9.503 29.085a2.31 2.31 0 0 0-.13.718c0 1.034.83 1.876 1.857 1.876.38 0 .74-.115 1.07-.343L64 88.57z"/></symbol><symbol id="sun" viewBox="0 0 128 128"><g><path d="M64.08 95.543c-17.39 0-31.538-14.148-31.538-31.538S46.69 32.47 64.08 32.47s31.536 14.146 31.536 31.535c0 17.39-14.147 31.538-31.537 31.538zm0-59.073c-15.185 0-27.538 12.353-27.538 27.535 0 15.184 12.354 27.538 27.537 27.538S91.61 79.19 91.61 64.005c0-15.182-12.353-27.535-27.537-27.535z"/></g><g><g><path d="M64.08 114.086a2 2 0 0 1-2-2V101.41a2 2 0 0 1 4 0v10.676a2 2 0 0 1-2 2zm0-85.483a2 2 0 0 1-2-2V15.926a2 2 0 0 1 4 0v10.677a2 2 0 0 1-2 2z"/></g><g><path d="M112.16 66.006h-10.677a2 2 0 0 1 0-4h10.676a2 2 0 0 1 0 4zm-85.484 0H16a2 2 0 0 1 0-4h10.676a2 2 0 0 1 0 4z"/></g></g><g><g><path d="M98.075 100.004a1.992 1.992 0 0 1-1.414-.586l-7.54-7.55a2 2 0 0 1 2.827-2.827l7.55 7.55a2 2 0 0 1-1.415 3.42zM37.63 39.558a1.992 1.992 0 0 1-1.414-.586l-7.548-7.55a2 2 0 1 1 2.828-2.827l7.548 7.55a2 2 0 0 1-1.414 3.413z"/></g><g><path d="M90.527 39.558a2 2 0 0 1-1.414-3.414l7.55-7.55a2 2 0 1 1 2.828 2.83l-7.55 7.548a1.99 1.99 0 0 1-1.41.586zm-60.445 60.446a2 2 0 0 1-1.414-3.414l7.55-7.55a2 2 0 1 1 2.827 2.83l-7.55 7.548c-.39.39-.9.586-1.413.586z"/></g></g></symbol><symbol id="wi-fi" viewBox="0 0 128 128"><path d="M84.52 81.436a1.992 1.992 0 0 1-1.544-.73A24.827 24.827 0 0 0 63.75 71.63a24.883 24.883 0 0 0-18.82 8.6 2 2 0 0 1-3.023-2.62 28.89 28.89 0 0 1 21.843-9.98c8.668 0 16.8 3.84 22.314 10.535a2 2 0 0 1-1.543 3.27zm14.26-16.724a1.99 1.99 0 0 1-1.49-.666 45.078 45.078 0 0 0-33.542-14.994c-12.533 0-24.598 5.29-33.1 14.512a2 2 0 0 1-2.94-2.712c9.257-10.042 22.393-15.8 36.04-15.8a49.09 49.09 0 0 1 36.52 16.324 2 2 0 0 1-1.488 3.336z"/><path d="M112.047 48.984a1.995 1.995 0 0 1-1.47-.643c-12.034-13.02-29.104-20.49-46.83-20.49-17.73 0-34.2 7.11-46.372 20.01a2 2 0 1 1-2.91-2.74C27.4 31.4 44.902 23.847 63.745 23.847c18.84 0 36.98 7.94 49.77 21.78a2 2 0 0 1-1.468 3.356zM63.97 103.207c-4.608 0-8.356-3.75-8.356-8.36 0-4.604 3.748-8.352 8.355-8.352s8.35 3.747 8.35 8.353c0 4.61-3.75 8.36-8.357 8.36zm0-12.712a4.36 4.36 0 0 0-4.356 4.353c0 2.404 1.954 4.36 4.355 4.36s4.35-1.956 4.35-4.36a4.36 4.36 0 0 0-4.357-4.353z"/></symbol></svg>