<?xml version="1.0" ?><!DOCTYPE svg  PUBLIC '-//W3C//DTD SVG 1.1//EN'  'http://www.w3.org/Graphics/SVG/1.1/DTD/svg11.dtd'><svg enable-background="new 0 0 128 128" height="128px" id="Layer_1" version="1.1" viewBox="0 0 128 128" width="128px" xml:space="preserve" xmlns="http://www.w3.org/2000/svg" xmlns:xlink="http://www.w3.org/1999/xlink"><path d="M29.364,44.712c-8.464,0-15.351-6.887-15.351-15.352c0-8.463,6.887-15.349,15.351-15.349  c8.465,0,15.352,6.886,15.352,15.349C44.716,37.825,37.829,44.712,29.364,44.712z M29.364,18.011  c-6.259,0-11.351,5.091-11.351,11.349c0,6.26,5.092,11.352,11.351,11.352S40.716,35.62,40.716,29.36  C40.716,23.102,35.623,18.011,29.364,18.011z"/><path d="M98.814,44.712c-8.464,0-15.35-6.887-15.35-15.352c0-8.464,6.886-15.352,15.35-15.352c8.466,0,15.353,6.887,15.353,15.352  C114.167,37.825,107.28,44.712,98.814,44.712z M98.814,18.008c-6.258,0-11.35,5.093-11.35,11.352c0,6.26,5.092,11.352,11.35,11.352  c6.26,0,11.353-5.092,11.353-11.352C110.167,23.101,105.074,18.008,98.814,18.008z"/><path d="M64.025,114.008c-8.466,0-15.353-6.887-15.353-15.351s6.887-15.35,15.353-15.35c8.463,0,15.349,6.886,15.349,15.35  S72.488,114.008,64.025,114.008z M64.025,87.308c-6.26,0-11.353,5.092-11.353,11.35c0,6.259,5.093,11.351,11.353,11.351  c6.258,0,11.349-5.092,11.349-11.351C75.374,92.399,70.283,87.308,64.025,87.308z"/><rect height="4" transform="matrix(0.4922 0.8705 -0.8705 0.4922 79.886 -8.7004)" width="51.711" x="21.545" y="62.118"/><rect height="51.711" transform="matrix(0.8706 0.492 -0.492 0.8706 41.9784 -31.3848)" width="4" x="78.659" y="38.262"/></svg>